<svg width="49" height="49" viewBox="0 0 49 49" fill="none" xmlns="http://www.w3.org/2000/svg">
<path d="M24.4998 0C10.9689 0 0 10.9689 0 24.4998C0 38.0307 10.9689 49 24.4998 49C38.0307 49 49 38.0307 49 24.4998C48.9847 10.9752 38.0248 0.0152526 24.4998 0ZM24.4998 46.5497C12.3219 46.5497 2.44984 36.6777 2.44984 24.4998C2.44984 12.3219 12.3219 2.44984 24.4998 2.44984C36.6777 2.44984 46.5497 12.3219 46.5497 24.4998C46.5358 36.6718 36.6718 46.5358 24.4998 46.5497Z" fill="white"/>
<path d="M30.3917 17.2377C30.3203 16.6901 29.8184 16.304 29.2708 16.3755L20.3464 17.5394C19.7987 17.6108 19.4127 18.1126 19.4841 18.6603C19.5555 19.2079 20.0574 19.594 20.605 19.5226L28.5378 18.488L29.5724 26.4208C29.6438 26.9685 30.1457 27.3545 30.6933 27.2831C31.241 27.2117 31.627 26.7098 31.5556 26.1622L30.3917 17.2377ZM17.9427 33.9012L30.1927 17.9768L28.6075 16.7573L16.3575 32.6818L17.9427 33.9012Z" fill="white"/>
</svg>
