<svg width="41" height="41" viewBox="0 0 41 41" fill="none" xmlns="http://www.w3.org/2000/svg">
<path d="M20.4998 0C9.17805 0 0 9.17805 0 20.4998C0 31.8216 9.17805 41 20.4998 41C31.8216 41 41 31.8216 41 20.4998C40.9872 9.18331 31.8167 0.0127624 20.4998 0ZM20.4998 38.9498C10.3102 38.9498 2.04987 30.6895 2.04987 20.4998C2.04987 10.3102 10.3102 2.04987 20.4998 2.04987C30.6895 2.04987 38.9498 10.3102 38.9498 20.4998C38.9381 30.6846 30.6846 38.9381 20.4998 38.9498Z" fill="#563ADA"/>
<path d="M25.3438 14.4347C25.2902 14.0239 24.9138 13.7344 24.5031 13.788L17.8098 14.6609C17.399 14.7145 17.1095 15.0909 17.1631 15.5016C17.2166 15.9123 17.593 16.2019 18.0038 16.1483L23.9534 15.3724L24.7293 21.322C24.7829 21.7327 25.1593 22.0223 25.57 21.9687C25.9807 21.9151 26.2703 21.5387 26.2167 21.128L25.3438 14.4347ZM14.9446 28.3135L25.1945 14.989L24.0056 14.0744L13.7556 27.3989L14.9446 28.3135Z" fill="#563ADA"/>
</svg>
