<svg width="27" height="27" viewBox="0 0 27 27" fill="none" xmlns="http://www.w3.org/2000/svg">
<path d="M21.3485 4.99609C20.9871 4.99609 20.693 5.29019 20.693 5.65158C20.693 6.01297 20.9871 6.30707 21.3485 6.30707C21.7099 6.30707 22.004 6.01302 22.004 5.65158C22.004 5.29014 21.7099 4.99609 21.3485 4.99609Z" fill="#999999"/>
<path d="M13.5 7.68896C10.2957 7.68896 7.68884 10.2958 7.68884 13.5001C7.68884 16.7043 10.2957 19.3113 13.5 19.3113C16.7043 19.3113 19.3111 16.7044 19.3111 13.5001C19.3111 10.2959 16.7043 7.68896 13.5 7.68896Z" fill="#999999"/>
<path d="M19.5984 0H7.40164C3.32037 0 0 3.32037 0 7.40169V19.5984C0 23.6797 3.32037 27 7.40164 27H19.5984C23.6797 27 27 23.6796 27 19.5984V7.40169C27 3.32037 23.6797 0 19.5984 0ZM13.5 20.9056C9.41651 20.9056 6.09446 17.5835 6.09446 13.5C6.09446 9.41651 9.41657 6.09451 13.5 6.09451C17.5834 6.09451 20.9056 9.41657 20.9056 13.5C20.9056 17.5834 17.5834 20.9056 13.5 20.9056ZM21.3485 7.90151C20.1079 7.90151 19.0985 6.89217 19.0985 5.65154C19.0985 4.41091 20.1079 3.40153 21.3485 3.40153C22.5891 3.40153 23.5985 4.41086 23.5985 5.65149C23.5985 6.89212 22.5891 7.90151 21.3485 7.90151Z" fill="#999999"/>
</svg>
