<svg width="25" height="25" viewBox="0 0 25 25" fill="none" xmlns="http://www.w3.org/2000/svg">
<path d="M3.03177 0.55835C1.19858 0.55835 0 1.76212 0 3.3443C0 4.89154 1.16287 6.12964 2.96143 6.12964H2.99622C4.86527 6.12964 6.02844 4.89154 6.02844 3.3443C5.9935 1.76212 4.86527 0.55835 3.03177 0.55835Z" fill="#999999"/>
<path d="M0.316772 8.33081H5.67596V24.4542H0.316772V8.33081Z" fill="#999999"/>
<path d="M18.8303 7.95239C15.9392 7.95239 14.0006 10.6691 14.0006 10.6691V8.33081H8.64124V24.4542H14.0003V15.4503C14.0003 14.9682 14.0352 14.487 14.1768 14.1423C14.5642 13.1797 15.4459 12.1826 16.9265 12.1826C18.8657 12.1826 19.6413 13.6612 19.6413 15.8287V24.4542H25V15.2093C25 10.2569 22.356 7.95239 18.8303 7.95239Z" fill="#999999"/>
</svg>
