<svg width="127" height="95" viewBox="0 0 127 95" fill="none" xmlns="http://www.w3.org/2000/svg">
<path fill-rule="evenodd" clip-rule="evenodd" d="M56.3885 39.352C57.5838 36.1684 58.2375 32.7199 58.2375 29.1187C58.2375 13.0369 45.2006 0 29.1187 0C13.0369 0 0 13.0369 0 29.1187C0 43.9119 11.0313 56.1286 25.3166 57.9915C27.7219 59.7674 26.9246 66.6017 7.50464 83.1528C3.90232 86.0346 4.00238 88.5562 4.5027 89.4568L7.50464 93.3593C8.30517 94.5601 10.9869 96.001 15.3097 92.1586C16.1033 91.4532 17.402 90.4823 19.0621 89.2411C28.7055 82.0315 50.5458 65.7034 56.4362 39.3246L56.3885 39.352Z" fill="#FF833D" fill-opacity="0.2"/>
<path fill-rule="evenodd" clip-rule="evenodd" d="M124.833 39.352C126.028 36.1684 126.682 32.7199 126.682 29.1187C126.682 13.0369 113.645 0 97.5631 0C81.4812 0 68.4443 13.0369 68.4443 29.1187C68.4443 43.9119 79.4756 56.1286 93.761 57.9915C96.1663 59.7674 95.3689 66.6017 75.949 83.1528C72.3467 86.0346 72.4467 88.5562 72.947 89.4568L75.949 93.3593C76.7495 94.5601 79.4313 96.001 83.7541 92.1586C84.5477 91.4532 85.8463 90.4823 87.5064 89.2411C97.1498 82.0315 118.99 65.7034 124.881 39.3246L124.833 39.352Z" fill="#FF833D" fill-opacity="0.2"/>
</svg>
