<svg width="127" height="95" viewBox="0 0 127 95" fill="none" xmlns="http://www.w3.org/2000/svg">
<path fill-rule="evenodd" clip-rule="evenodd" d="M70.2933 55.2991C69.0981 58.4827 68.4444 61.9312 68.4444 65.5324C68.4444 81.6142 81.4813 94.6511 97.5631 94.6511C113.645 94.6511 126.682 81.6142 126.682 65.5324C126.682 50.7392 115.651 38.5225 101.365 36.6596C98.9599 34.8837 99.7573 28.0495 119.177 11.4984C122.78 8.6165 122.68 6.09488 122.179 5.19429L119.177 1.29178C118.377 0.0910034 115.695 -1.34991 111.372 2.49255C110.579 3.19797 109.28 4.16886 107.62 5.41C97.9764 12.6196 76.1361 28.9478 70.2457 55.3266L70.2933 55.2991Z" fill="#FF833D" fill-opacity="0.2"/>
<path fill-rule="evenodd" clip-rule="evenodd" d="M1.849 55.2991C0.653767 58.4827 5.34058e-05 61.9312 5.34058e-05 65.5324C5.34058e-05 81.6142 13.037 94.6511 29.1188 94.6511C45.2006 94.6511 58.2375 81.6142 58.2375 65.5324C58.2375 50.7392 47.2062 38.5225 32.9209 36.6596C30.5156 34.8837 31.3129 28.0495 50.7329 11.4984C54.3352 8.6165 54.2352 6.09488 53.7348 5.19429L50.7329 1.29178C49.9324 0.0910034 47.2506 -1.34991 42.9278 2.49255C42.1342 3.19797 40.8356 4.16886 39.1755 5.41C29.532 12.6196 7.69175 28.9478 1.80134 55.3266L1.849 55.2991Z" fill="#FF833D" fill-opacity="0.2"/>
</svg>
